<mxfile host="app.diagrams.net" modified="2021-07-22T01:20:48.764Z" agent="5.0 (Macintosh; Intel Mac OS X 10_15_7) AppleWebKit/537.36 (KHTML, like Gecko) Chrome/91.0.4472.114 Safari/537.36" etag="04MBcpiOJGI-aHcebPxv" version="14.9.0" type="github">
  <diagram id="JmtXC3KNYKc-si2XV-58" name="Page-1">
    <mxGraphModel dx="878" dy="720" grid="1" gridSize="10" guides="1" tooltips="1" connect="1" arrows="1" fold="1" page="1" pageScale="1" pageWidth="827" pageHeight="1169" math="0" shadow="0">
      <root>
        <mxCell id="0" />
        <mxCell id="1" parent="0" />
        <mxCell id="gwNynlul9ihLpbrJon8_-7" value="" style="points=[[0.13,0.02,0],[0.5,0,0],[0.87,0.02,0],[0.885,0.4,0],[0.985,0.985,0],[0.5,1,0],[0.015,0.985,0],[0.115,0.4,0]];verticalLabelPosition=bottom;html=1;verticalAlign=top;aspect=fixed;align=center;pointerEvents=1;shape=mxgraph.cisco19.laptop;fillColor=#005073;strokeColor=none;" parent="1" vertex="1">
          <mxGeometry x="34" y="256" width="50" height="35" as="geometry" />
        </mxCell>
        <mxCell id="gwNynlul9ihLpbrJon8_-8" value="" style="points=[[0.03,0.03,0],[0.5,0,0],[0.97,0.03,0],[1,0.4,0],[0.97,0.745,0],[0.5,1,0],[0.03,0.745,0],[0,0.4,0]];verticalLabelPosition=bottom;html=1;verticalAlign=top;aspect=fixed;align=center;pointerEvents=1;shape=mxgraph.cisco19.workstation;fillColor=#005073;strokeColor=none;" parent="1" vertex="1">
          <mxGeometry x="34" y="186" width="50" height="40" as="geometry" />
        </mxCell>
        <mxCell id="gwNynlul9ihLpbrJon8_-9" value="" style="points=[[0.015,0.015,0],[0.985,0.015,0],[0.985,0.985,0],[0.015,0.985,0],[0.25,0,0],[0.5,0,0],[0.75,0,0],[1,0.25,0],[1,0.5,0],[1,0.75,0],[0.75,1,0],[0.5,1,0],[0.25,1,0],[0,0.75,0],[0,0.5,0],[0,0.25,0]];verticalLabelPosition=bottom;html=1;verticalAlign=top;aspect=fixed;align=center;pointerEvents=1;shape=mxgraph.cisco19.handheld;fillColor=#005073;strokeColor=none;" parent="1" vertex="1">
          <mxGeometry x="40.25" y="110" width="37.5" height="50" as="geometry" />
        </mxCell>
        <mxCell id="gwNynlul9ihLpbrJon8_-11" value="" style="aspect=fixed;pointerEvents=1;shadow=0;dashed=0;html=1;strokeColor=none;labelPosition=center;verticalLabelPosition=bottom;verticalAlign=top;align=center;fillColor=#00188D;shape=mxgraph.azure.tablet;" parent="1" vertex="1">
          <mxGeometry x="34" y="326" width="50" height="37" as="geometry" />
        </mxCell>
        <mxCell id="gwNynlul9ihLpbrJon8_-13" value="" style="aspect=fixed;perimeter=ellipsePerimeter;html=1;align=center;shadow=0;dashed=0;spacingTop=3;image;image=img/lib/active_directory/internet_globe.svg;" parent="1" vertex="1">
          <mxGeometry x="214" y="161" width="50" height="50" as="geometry" />
        </mxCell>
        <mxCell id="gwNynlul9ihLpbrJon8_-15" value="" style="shape=image;html=1;verticalAlign=top;verticalLabelPosition=bottom;labelBackgroundColor=#ffffff;imageAspect=0;aspect=fixed;image=https://cdn4.iconfinder.com/data/icons/logos-brands-5/24/nginx-128.png" parent="1" vertex="1">
          <mxGeometry x="574" y="197" width="48" height="48" as="geometry" />
        </mxCell>
        <mxCell id="gwNynlul9ihLpbrJon8_-16" value="" style="outlineConnect=0;dashed=0;verticalLabelPosition=bottom;verticalAlign=top;align=center;html=1;shape=mxgraph.aws3.ec2;fillColor=#F58534;gradientColor=none;" parent="1" vertex="1">
          <mxGeometry x="653.5" y="199.5" width="36.5" height="43" as="geometry" />
        </mxCell>
        <mxCell id="gwNynlul9ihLpbrJon8_-17" value="" style="shape=image;html=1;verticalAlign=top;verticalLabelPosition=bottom;labelBackgroundColor=#ffffff;imageAspect=0;aspect=fixed;image=https://cdn4.iconfinder.com/data/icons/logos-3/512/mongodb-2-128.png" parent="1" vertex="1">
          <mxGeometry x="690" y="336" width="48" height="48" as="geometry" />
        </mxCell>
        <mxCell id="gwNynlul9ihLpbrJon8_-19" value="" style="aspect=fixed;html=1;points=[];align=center;image;fontSize=12;image=img/lib/mscae/Managed_Databases.svg;" parent="1" vertex="1">
          <mxGeometry x="648.25" y="336" width="47" height="50" as="geometry" />
        </mxCell>
        <mxCell id="gwNynlul9ihLpbrJon8_-20" value="" style="outlineConnect=0;dashed=0;verticalLabelPosition=bottom;verticalAlign=top;align=center;html=1;shape=mxgraph.aws3.s3;fillColor=#E05243;gradientColor=none;" parent="1" vertex="1">
          <mxGeometry x="477.5" y="343" width="36.5" height="43" as="geometry" />
        </mxCell>
        <mxCell id="gwNynlul9ihLpbrJon8_-21" value="" style="outlineConnect=0;fontColor=#232F3E;gradientColor=none;fillColor=#277116;strokeColor=none;dashed=0;verticalLabelPosition=bottom;verticalAlign=top;align=center;html=1;fontSize=12;fontStyle=0;aspect=fixed;pointerEvents=1;shape=mxgraph.aws4.bucket;" parent="1" vertex="1">
          <mxGeometry x="514" y="346.3" width="35" height="36.4" as="geometry" />
        </mxCell>
        <mxCell id="gwNynlul9ihLpbrJon8_-25" value="Cloud&#xa;CDN" style="html=1;fillColor=#5184F3;strokeColor=none;verticalAlign=top;labelPosition=center;verticalLabelPosition=bottom;align=center;spacingTop=-6;fontSize=11;fontStyle=1;fontColor=#999999;shape=mxgraph.gcp2.hexIcon;prIcon=cloud_cdn" parent="1" vertex="1">
          <mxGeometry x="206" y="226" width="66" height="58.5" as="geometry" />
        </mxCell>
        <mxCell id="gwNynlul9ihLpbrJon8_-26" value="[ Akamai ]&lt;br&gt;&lt;font style=&quot;font-size: 12px&quot;&gt;&lt;span style=&quot;font-family: &amp;#34;source sans pro&amp;#34; , sans-serif ; background-color: rgb(255 , 255 , 255)&quot;&gt;you can&amp;nbsp;&lt;/span&gt;&lt;span style=&quot;font-family: &amp;#34;source sans pro&amp;#34; , sans-serif ; background-color: rgb(255 , 255 , 255)&quot;&gt;receive&lt;/span&gt;&lt;span style=&quot;font-family: &amp;#34;source sans pro&amp;#34; , sans-serif ; background-color: rgb(255 , 255 , 255)&quot;&gt;&amp;nbsp;fast service from&amp;nbsp;&lt;/span&gt;&lt;span style=&quot;font-family: &amp;#34;source sans pro&amp;#34; , sans-serif ; background-color: rgb(255 , 255 , 255)&quot;&gt;cached&lt;/span&gt;&lt;span style=&quot;font-family: &amp;#34;source sans pro&amp;#34; , sans-serif ; background-color: rgb(255 , 255 , 255)&quot;&gt;&amp;nbsp;data on over the world, especially under 50M data&lt;/span&gt;&lt;/font&gt;" style="text;html=1;strokeColor=none;fillColor=none;align=center;verticalAlign=middle;whiteSpace=wrap;rounded=0;" parent="1" vertex="1">
          <mxGeometry x="180" y="402" width="170" height="68" as="geometry" />
        </mxCell>
        <mxCell id="Tq353sXl2KkIvjmvmrAU-4" value="" style="endArrow=classic;html=1;exitX=1;exitY=0.5;exitDx=0;exitDy=0;exitPerimeter=0;entryX=0;entryY=0.25;entryDx=0;entryDy=0;" parent="1" target="gwNynlul9ihLpbrJon8_-13" edge="1">
          <mxGeometry width="50" height="50" relative="1" as="geometry">
            <mxPoint x="77.75" y="133" as="sourcePoint" />
            <mxPoint x="164" y="79" as="targetPoint" />
          </mxGeometry>
        </mxCell>
        <mxCell id="Tq353sXl2KkIvjmvmrAU-5" value="" style="endArrow=classic;html=1;exitX=1.04;exitY=0.575;exitDx=0;exitDy=0;exitPerimeter=0;entryX=0;entryY=0.5;entryDx=0;entryDy=0;" parent="1" source="gwNynlul9ihLpbrJon8_-8" target="gwNynlul9ihLpbrJon8_-13" edge="1">
          <mxGeometry width="50" height="50" relative="1" as="geometry">
            <mxPoint x="104" y="231" as="sourcePoint" />
            <mxPoint x="154" y="181" as="targetPoint" />
          </mxGeometry>
        </mxCell>
        <mxCell id="Tq353sXl2KkIvjmvmrAU-6" value="" style="endArrow=classic;html=1;exitX=0.885;exitY=0.4;exitDx=0;exitDy=0;exitPerimeter=0;entryX=0;entryY=0.75;entryDx=0;entryDy=0;" parent="1" source="gwNynlul9ihLpbrJon8_-7" target="gwNynlul9ihLpbrJon8_-13" edge="1">
          <mxGeometry width="50" height="50" relative="1" as="geometry">
            <mxPoint x="84" y="276" as="sourcePoint" />
            <mxPoint x="134" y="226" as="targetPoint" />
          </mxGeometry>
        </mxCell>
        <mxCell id="Tq353sXl2KkIvjmvmrAU-8" value="" style="endArrow=classic;html=1;exitX=1;exitY=0.5;exitDx=0;exitDy=0;exitPerimeter=0;entryX=0;entryY=1;entryDx=0;entryDy=0;" parent="1" source="gwNynlul9ihLpbrJon8_-11" target="gwNynlul9ihLpbrJon8_-13" edge="1">
          <mxGeometry width="50" height="50" relative="1" as="geometry">
            <mxPoint x="94" y="341" as="sourcePoint" />
            <mxPoint x="202" y="196" as="targetPoint" />
          </mxGeometry>
        </mxCell>
        <mxCell id="Tq353sXl2KkIvjmvmrAU-9" value="" style="endArrow=none;html=1;exitX=0.5;exitY=0.16;exitDx=0;exitDy=0;exitPerimeter=0;entryX=0.5;entryY=1;entryDx=0;entryDy=0;" parent="1" source="gwNynlul9ihLpbrJon8_-25" target="gwNynlul9ihLpbrJon8_-13" edge="1">
          <mxGeometry width="50" height="50" relative="1" as="geometry">
            <mxPoint x="264" y="216" as="sourcePoint" />
            <mxPoint x="314" y="166" as="targetPoint" />
          </mxGeometry>
        </mxCell>
        <mxCell id="Tq353sXl2KkIvjmvmrAU-10" value="" style="endArrow=none;html=1;entryX=0;entryY=0.5;entryDx=0;entryDy=0;entryPerimeter=0;exitX=1;exitY=0.5;exitDx=0;exitDy=0;" parent="1" source="gwNynlul9ihLpbrJon8_-15" target="gwNynlul9ihLpbrJon8_-16" edge="1">
          <mxGeometry width="50" height="50" relative="1" as="geometry">
            <mxPoint x="634" y="221" as="sourcePoint" />
            <mxPoint x="674" y="176" as="targetPoint" />
          </mxGeometry>
        </mxCell>
        <mxCell id="Tq353sXl2KkIvjmvmrAU-11" value="" style="outlineConnect=0;dashed=0;verticalLabelPosition=bottom;verticalAlign=top;align=center;html=1;shape=mxgraph.aws3.application_load_balancer;fillColor=#F58536;gradientColor=none;" parent="1" vertex="1">
          <mxGeometry x="428" y="195.5" width="43" height="51" as="geometry" />
        </mxCell>
        <mxCell id="Tq353sXl2KkIvjmvmrAU-13" value="" style="shape=image;html=1;verticalAlign=top;verticalLabelPosition=bottom;labelBackgroundColor=#ffffff;imageAspect=0;aspect=fixed;image=https://cdn2.iconfinder.com/data/icons/whcompare-servers-web-hosting/50/ssl-certificate-128.png" parent="1" vertex="1">
          <mxGeometry x="454" y="166.5" width="27" height="28" as="geometry" />
        </mxCell>
        <mxCell id="Tq353sXl2KkIvjmvmrAU-14" value="" style="shape=image;html=1;verticalAlign=top;verticalLabelPosition=bottom;labelBackgroundColor=#ffffff;imageAspect=0;aspect=fixed;image=https://cdn2.iconfinder.com/data/icons/whcompare-servers-web-hosting/50/ssl-certificate-128.png" parent="1" vertex="1">
          <mxGeometry x="264" y="241.25" width="28" height="28" as="geometry" />
        </mxCell>
        <mxCell id="Tq353sXl2KkIvjmvmrAU-19" value="" style="endArrow=classic;startArrow=classic;html=1;" parent="1" source="gwNynlul9ihLpbrJon8_-21" target="gwNynlul9ihLpbrJon8_-16" edge="1">
          <mxGeometry width="50" height="50" relative="1" as="geometry">
            <mxPoint x="554" y="516" as="sourcePoint" />
            <mxPoint x="604" y="466" as="targetPoint" />
          </mxGeometry>
        </mxCell>
        <mxCell id="Tq353sXl2KkIvjmvmrAU-20" value="" style="endArrow=classic;startArrow=classic;html=1;exitX=0.457;exitY=-0.01;exitDx=0;exitDy=0;exitPerimeter=0;" parent="1" source="gwNynlul9ihLpbrJon8_-19" target="gwNynlul9ihLpbrJon8_-16" edge="1">
          <mxGeometry width="50" height="50" relative="1" as="geometry">
            <mxPoint x="634" y="306" as="sourcePoint" />
            <mxPoint x="684" y="256" as="targetPoint" />
          </mxGeometry>
        </mxCell>
        <mxCell id="Tq353sXl2KkIvjmvmrAU-21" value="" style="endArrow=classic;html=1;exitX=1;exitY=0.5;exitDx=0;exitDy=0;entryX=0;entryY=0.5;entryDx=0;entryDy=0;entryPerimeter=0;" parent="1" source="gwNynlul9ihLpbrJon8_-13" target="Tq353sXl2KkIvjmvmrAU-11" edge="1">
          <mxGeometry width="50" height="50" relative="1" as="geometry">
            <mxPoint x="264" y="191.5" as="sourcePoint" />
            <mxPoint x="314" y="141.5" as="targetPoint" />
          </mxGeometry>
        </mxCell>
        <mxCell id="Tq353sXl2KkIvjmvmrAU-22" value="" style="endArrow=classic;html=1;entryX=0;entryY=0.5;entryDx=0;entryDy=0;exitX=1;exitY=0.5;exitDx=0;exitDy=0;exitPerimeter=0;" parent="1" source="Tq353sXl2KkIvjmvmrAU-11" target="gwNynlul9ihLpbrJon8_-15" edge="1">
          <mxGeometry width="50" height="50" relative="1" as="geometry">
            <mxPoint x="524" y="226" as="sourcePoint" />
            <mxPoint x="574" y="176" as="targetPoint" />
          </mxGeometry>
        </mxCell>
        <mxCell id="Tq353sXl2KkIvjmvmrAU-23" value="[ Amazon S3 ] &lt;br&gt;cloud storage which have high availability and extensibility, and can apply various kind of secure policy" style="text;html=1;strokeColor=none;fillColor=none;align=center;verticalAlign=middle;whiteSpace=wrap;rounded=0;" parent="1" vertex="1">
          <mxGeometry x="446" y="395" width="144" height="92" as="geometry" />
        </mxCell>
        <mxCell id="Tq353sXl2KkIvjmvmrAU-24" value="application load balancer" style="text;html=1;strokeColor=none;fillColor=none;align=center;verticalAlign=middle;whiteSpace=wrap;rounded=0;" parent="1" vertex="1">
          <mxGeometry x="410" y="246.5" width="79" height="40" as="geometry" />
        </mxCell>
        <mxCell id="Tq353sXl2KkIvjmvmrAU-25" value="EC2 server" style="text;html=1;strokeColor=none;fillColor=none;align=center;verticalAlign=middle;whiteSpace=wrap;rounded=0;" parent="1" vertex="1">
          <mxGeometry x="690" y="211" width="40" height="20" as="geometry" />
        </mxCell>
        <mxCell id="Tq353sXl2KkIvjmvmrAU-26" value="listen :80&lt;br&gt;proxy to :3000&lt;br&gt;/api: proxy to :5000" style="text;html=1;strokeColor=none;fillColor=none;align=center;verticalAlign=middle;whiteSpace=wrap;rounded=0;" parent="1" vertex="1">
          <mxGeometry x="541" y="156" width="114" height="20" as="geometry" />
        </mxCell>
        <mxCell id="Tq353sXl2KkIvjmvmrAU-27" value="" style="shape=image;html=1;verticalAlign=top;verticalLabelPosition=bottom;labelBackgroundColor=#ffffff;imageAspect=0;aspect=fixed;image=https://cdn0.iconfinder.com/data/icons/logos-brands-in-colors/128/react_color-128.png" parent="1" vertex="1">
          <mxGeometry x="684" y="136" width="40" height="40" as="geometry" />
        </mxCell>
        <mxCell id="Tq353sXl2KkIvjmvmrAU-28" value="" style="outlineConnect=0;dashed=0;verticalLabelPosition=bottom;verticalAlign=top;align=center;html=1;shape=mxgraph.aws3.android;fillColor=#8CC64F;gradientColor=none;" parent="1" vertex="1">
          <mxGeometry x="744" y="136" width="37.5" height="40" as="geometry" />
        </mxCell>
        <mxCell id="Tq353sXl2KkIvjmvmrAU-29" value="" style="endArrow=none;html=1;exitX=1;exitY=0.5;exitDx=0;exitDy=0;entryX=0;entryY=0.5;entryDx=0;entryDy=0;entryPerimeter=0;" parent="1" source="Tq353sXl2KkIvjmvmrAU-27" target="Tq353sXl2KkIvjmvmrAU-28" edge="1">
          <mxGeometry width="50" height="50" relative="1" as="geometry">
            <mxPoint x="404" y="416" as="sourcePoint" />
            <mxPoint x="454" y="366" as="targetPoint" />
          </mxGeometry>
        </mxCell>
        <mxCell id="Tq353sXl2KkIvjmvmrAU-32" value="[ N-screen ] :&lt;br&gt;&lt;span style=&quot;font-family: &amp;#34;source sans pro&amp;#34; , sans-serif ; font-size: 14px ; background-color: rgb(255 , 255 , 255)&quot;&gt;you can access from every&amp;nbsp;&lt;/span&gt;&lt;span style=&quot;font-family: &amp;#34;source sans pro&amp;#34; , sans-serif ; font-size: 14px ; background-color: rgb(255 , 255 , 255)&quot;&gt;device&lt;/span&gt;&lt;span style=&quot;font-family: &amp;#34;source sans pro&amp;#34; , sans-serif ; font-size: 14px ; background-color: rgb(255 , 255 , 255)&quot;&gt;&amp;nbsp;you want.&lt;/span&gt;" style="text;html=1;strokeColor=none;fillColor=none;align=center;verticalAlign=middle;whiteSpace=wrap;rounded=0;" parent="1" vertex="1">
          <mxGeometry x="20" y="402" width="140" height="42" as="geometry" />
        </mxCell>
        <mxCell id="Tq353sXl2KkIvjmvmrAU-33" value="[ Mongodb Atlas ]&lt;br&gt;&amp;nbsp;cloud storage which is managed, so can skip the installation and configurations" style="text;html=1;strokeColor=none;fillColor=none;align=center;verticalAlign=middle;whiteSpace=wrap;rounded=0;" parent="1" vertex="1">
          <mxGeometry x="610.94" y="395" width="121.62" height="90" as="geometry" />
        </mxCell>
        <mxCell id="Tq353sXl2KkIvjmvmrAU-34" value="[ Amazon Load Balancer ]&lt;br&gt;&lt;font style=&quot;font-size: 12px&quot;&gt;&amp;nbsp;&lt;span style=&quot;font-family: &amp;#34;source sans pro&amp;#34; , sans-serif ; background-color: rgb(255 , 255 , 255)&quot;&gt;you can distribute all traffics on every app or server, also can apply&amp;nbsp;SSL&lt;/span&gt;&lt;span style=&quot;font-family: &amp;#34;source sans pro&amp;#34; , sans-serif ; background-color: rgb(255 , 255 , 255)&quot;&gt;&amp;nbsp;via&amp;nbsp;AWS&lt;/span&gt;&lt;/font&gt;" style="text;html=1;strokeColor=none;fillColor=none;align=center;verticalAlign=middle;whiteSpace=wrap;rounded=0;" parent="1" vertex="1">
          <mxGeometry x="286" y="20" width="160" height="51" as="geometry" />
        </mxCell>
        <mxCell id="Tq353sXl2KkIvjmvmrAU-35" value="[ MERN stack ]&lt;br&gt;&amp;nbsp;&lt;font style=&quot;font-size: 12px ; background-color: rgb(255 , 255 , 255)&quot;&gt;&lt;span style=&quot;font-family: &amp;#34;source sans pro&amp;#34; , sans-serif&quot;&gt;build the server fast, can handle traffics efficiently&lt;/span&gt;&lt;br style=&quot;font-family: &amp;#34;source sans pro&amp;#34; , sans-serif&quot;&gt;&lt;span class=&quot;hiddenGrammarError&quot; style=&quot;cursor: pointer ; font-family: &amp;#34;source sans pro&amp;#34; , sans-serif&quot;&gt;(&amp;nbsp;&lt;/span&gt;&lt;span style=&quot;font-family: &amp;#34;source sans pro&amp;#34; , sans-serif&quot;&gt;it&#39;s specialized on services like shopping mall which focused on many I/O rather than high level&amp;nbsp;&lt;/span&gt;&lt;span class=&quot;hiddenSpellError&quot; style=&quot;cursor: pointer ; font-family: &amp;#34;source sans pro&amp;#34; , sans-serif&quot;&gt;CPU&lt;/span&gt;&lt;span style=&quot;font-family: &amp;#34;source sans pro&amp;#34; , sans-serif&quot;&gt;&amp;nbsp;calculations&lt;/span&gt;&lt;span class=&quot;hiddenGrammarError&quot; style=&quot;cursor: pointer ; font-family: &amp;#34;source sans pro&amp;#34; , sans-serif&quot;&gt;&amp;nbsp;)&lt;/span&gt;&lt;/font&gt;" style="text;html=1;strokeColor=none;fillColor=none;align=center;verticalAlign=middle;whiteSpace=wrap;rounded=0;" parent="1" vertex="1">
          <mxGeometry x="628" y="20" width="182" height="90" as="geometry" />
        </mxCell>
        <mxCell id="Tq353sXl2KkIvjmvmrAU-36" value="[ Nginx ]&lt;br&gt;&lt;font style=&quot;font-size: 12px&quot;&gt;&lt;span style=&quot;font-family: &amp;#34;source sans pro&amp;#34; , sans-serif ; background-color: rgb(255 , 255 , 255)&quot;&gt;it can handle high volume&amp;nbsp;&lt;/span&gt;&lt;span style=&quot;font-family: &amp;#34;source sans pro&amp;#34; , sans-serif ; background-color: rgb(255 , 255 , 255)&quot;&gt;traffics&lt;/span&gt;&lt;span style=&quot;font-family: &amp;#34;source sans pro&amp;#34; , sans-serif ; background-color: rgb(255 , 255 , 255)&quot;&gt;, can use load balancing, proxy, etc&lt;/span&gt;&lt;/font&gt;" style="text;html=1;strokeColor=none;fillColor=none;align=center;verticalAlign=middle;whiteSpace=wrap;rounded=0;" parent="1" vertex="1">
          <mxGeometry x="463.5" y="20" width="160" height="51" as="geometry" />
        </mxCell>
        <mxCell id="Tq353sXl2KkIvjmvmrAU-37" value="&lt;span style=&quot;font-size: 22px&quot;&gt;ALISEON WEB DEMO&lt;/span&gt;" style="text;html=1;strokeColor=none;fillColor=none;align=center;verticalAlign=middle;whiteSpace=wrap;rounded=0;" parent="1" vertex="1">
          <mxGeometry x="26.25" y="20" width="243.75" height="40" as="geometry" />
        </mxCell>
      </root>
    </mxGraphModel>
  </diagram>
</mxfile>
